<svg xmlns="http://www.w3.org/2000/svg" viewBox="0 0 512 512">
  <defs>
    <linearGradient id="bg" x1="0%" y1="0%" x2="100%" y2="100%">
      <stop offset="0%" style="stop-color:#0d6efd"/>
      <stop offset="100%" style="stop-color:#0a58ca"/>
    </linearGradient>
  </defs>
  <rect width="512" height="512" rx="96" fill="url(#bg)"/>
  <g fill="white">
    <!-- Music note icon -->
    <path d="M256 128c0-11.046 8.954-20 20-20h120c11.046 0 20 8.954 20 20v200c0 33.137-26.863 60-60 60s-60-26.863-60-60 26.863-60 60-60c11.046 0 21.456 2.372 30.879 6.632V168H296v160c0 33.137-26.863 60-60 60s-60-26.863-60-60 26.863-60 60-60c11.046 0 21.456 2.372 30.879 6.632V148c0-11.046 8.954-20 20-20h-10.879c-11.046 0-20-8.954-20-20z" transform="translate(-60, 16) scale(0.8)"/>
    <!-- Arrow indicating conversion -->
    <path d="M180 340 L220 380 L180 420 M220 380 L80 380" stroke="white" stroke-width="24" fill="none" stroke-linecap="round" stroke-linejoin="round" transform="translate(40, -120)"/>
  </g>
  <text x="256" y="460" text-anchor="middle" fill="white" font-family="Arial, sans-serif" font-size="48" font-weight="bold">MP3</text>
</svg>
